<svg width="693" height="693" viewBox="0 0 693 693" fill="none" xmlns="http://www.w3.org/2000/svg">
<mask id="mask0" mask-type="alpha" maskUnits="userSpaceOnUse" x="-55" y="-55" width="803" height="803">
<circle cx="346.447" cy="346.447" r="346.537" transform="rotate(-10 346.447 346.447)" fill="#C4C4C4"/>
</mask>
<g mask="url(#mask0)">
<rect x="-84.3919" y="70.5334" width="749.447" height="218.865" transform="rotate(-10 -84.3919 70.5334)" fill="#B4E8FF"/>
<rect x="-52.1448" y="253.416" width="749.447" height="232.13" transform="rotate(-10 -52.1448 253.416)" fill="#8BDCFF"/>
<rect x="-14.8079" y="465.541" width="750" height="100" transform="rotate(-10 -14.8079 465.541)" fill="#53CBFF"/>
<rect x="1.68866" y="559.097" width="750" height="220" transform="rotate(-10 1.68866 559.097)" fill="#008EBB"/>
<rect x="-13.3262" y="148.92" width="464.259" height="39.7937" rx="11" transform="rotate(-10 -13.3262 148.92)" fill="#D3F2FF"/>
<rect x="39.1232" y="102.631" width="258.659" height="56.3744" rx="11" transform="rotate(-10 39.1232 102.631)" fill="#D3F2FF"/>
<rect x="250.435" y="78.8403" width="109.433" height="23.213" rx="11" transform="rotate(-10 250.435 78.8403)" fill="#B4E8FF"/>
<rect x="427.922" y="168.767" width="222.181" height="36.4775" rx="11" transform="rotate(-10 427.922 168.767)" fill="#B4E8FF"/>
<rect x="11.6562" y="80.536" width="351.511" height="39.7937" rx="11" transform="rotate(-10 11.6562 80.536)" fill="#D3F2FF"/>
<path d="M444.251 165.888L408.327 172.222C408.327 172.222 416.617 170.761 423.131 175.385C429.645 180.009 431.126 188.406 431.126 188.406L447.706 185.483L444.251 165.888Z" fill="#B0E7FF"/>
<rect x="0.446228" y="570.771" width="464.259" height="39.7937" rx="11" transform="rotate(-10 0.446228 570.771)" fill="#00B4ED"/>
<rect x="52.8956" y="524.482" width="258.659" height="56.3744" rx="11" transform="rotate(-10 52.8956 524.482)" fill="#00B4ED"/>
<rect x="212.323" y="509.772" width="384" height="23" rx="11" transform="rotate(-10 212.323 509.772)" fill="#53CBFF"/>
<rect x="-10.4948" y="508.721" width="387.988" height="39.7937" rx="11" transform="rotate(-10 -10.4948 508.721)" fill="#00B4ED"/>
<rect x="0.067627" y="530.43" width="145.91" height="23.213" rx="11" transform="rotate(-10 0.067627 530.43)" fill="#53CBFF"/>
<path d="M580.986 444.835L602.214 441.092C602.214 441.092 597.315 441.956 594.625 445.797C591.935 449.639 592.799 454.537 592.799 454.537L583.002 456.265L580.986 444.835Z" fill="#53CBFF"/>
<path d="M438.058 493.608L480.513 486.122C480.513 486.122 470.716 487.849 465.336 495.533C459.956 503.216 461.683 513.013 461.683 513.013L442.089 516.468L438.058 493.608Z" fill="#00B4ED"/>
<rect width="222" height="20" rx="10" transform="matrix(0.984808 -0.173648 -0.173648 -0.984808 577.742 468.693)" fill="#008EBB"/>
<path d="M594.483 465.741L558.046 472.166C558.046 472.166 566.454 470.684 571.564 466.882C576.674 463.079 575.929 458.859 575.929 458.859L592.747 455.893L594.483 465.741Z" fill="#008EBB"/>
<rect x="569.949" y="689.399" width="444" height="98" rx="11" transform="rotate(170 569.949 689.399)" fill="#00536D"/>
<rect x="695.942" y="552.522" width="464.259" height="39.7937" rx="11" transform="rotate(170 695.942 552.522)" fill="#0C678E"/>
<rect x="655.404" y="589.975" width="258.659" height="56.3744" rx="11" transform="rotate(170 655.404 589.975)" fill="#0C678E"/>
<rect x="484.433" y="613.388" width="384.672" height="23.213" rx="11" transform="rotate(170 484.433 613.388)" fill="#00536D"/>
<rect x="709.479" y="600.644" width="391.304" height="26.5291" rx="11" transform="rotate(170 709.479 600.644)" fill="#0C678E"/>
<rect x="647.721" y="584.595" width="145.91" height="23.213" rx="11" transform="rotate(170 647.721 584.595)" fill="#00536D"/>
<path d="M127.314 669.623L106.086 673.366C106.086 673.366 110.985 672.502 113.675 668.66C116.365 664.819 115.501 659.92 115.501 659.92L125.298 658.193L127.314 669.623Z" fill="#2ABDEC"/>
<path d="M258.331 629.685L215.876 637.171C215.876 637.171 225.673 635.443 231.053 627.76C236.433 620.077 234.705 610.279 234.705 610.279L254.3 606.824L258.331 629.685Z" fill="#0C678E"/>
<rect x="-79.4383" y="365.982" width="384.672" height="39.7937" rx="11" transform="rotate(-10 -79.4383 365.982)" fill="#B0E7FF"/>
<rect x="-26.989" y="319.693" width="258.659" height="56.3744" rx="11" transform="rotate(-10 -26.989 319.693)" fill="#B0E7FF"/>
<rect x="184.323" y="295.903" width="109.433" height="23.213" rx="11" transform="rotate(-10 184.323 295.903)" fill="#8BDCFF"/>
<rect x="-54.456" y="297.598" width="427.782" height="39.7937" rx="11" transform="rotate(-10 -54.456 297.598)" fill="#B0E7FF"/>
<rect x="-48.3111" y="343.197" width="109.433" height="33.1614" rx="11" transform="rotate(-10 -48.3111 343.197)" fill="#8BDCFF"/>
<rect x="526.652" y="232.174" width="275.24" height="26.5291" rx="11" transform="rotate(-10 526.652 232.174)" fill="#63CFFD"/>
<rect x="445.008" y="246.57" width="66.3228" height="26.5291" rx="11" transform="rotate(-10 445.008 246.57)" fill="#63CFFD"/>
<rect x="595.612" y="260.421" width="96.168" height="26.5291" rx="11" transform="rotate(-10 595.612 260.421)" fill="#63CFFD"/>
<rect x="213.888" y="425.381" width="222.181" height="19.8968" rx="9.94842" transform="rotate(170 213.888 425.381)" fill="#53CBFF"/>
<path d="M197.559 428.26L233.483 421.926C233.483 421.926 225.193 423.388 219.173 421.563C213.152 419.739 212.412 415.54 212.412 415.54L195.832 418.463L197.559 428.26Z" fill="#53CBFF"/>
<rect width="222.181" height="19.8968" rx="9.94842" transform="matrix(0.984808 -0.173648 -0.173648 -0.984808 530.667 369.525)" fill="#53CBFF"/>
<path d="M546.996 366.646L511.072 372.98C511.072 372.98 519.362 371.518 524.395 367.744C529.428 363.971 528.688 359.772 528.688 359.772L545.268 356.848L546.996 366.646Z" fill="#53CBFF"/>
</g>
</svg>
