<svg width="1197" height="277" viewBox="0 0 1197 277" fill="none" xmlns="http://www.w3.org/2000/svg">
<mask id="mask0" mask-type="alpha" maskUnits="userSpaceOnUse" x="26" y="17" width="243" height="243">
<circle cx="147.059" cy="138.059" r="104.5" transform="rotate(-10 147.059 138.059)" fill="#C4C4C4"/>
</mask>
<g mask="url(#mask0)">
<rect x="17.1367" y="54.8553" width="226" height="66" transform="rotate(-10 17.1367 54.8553)" fill="#BCFBF7"/>
<rect x="26.861" y="110.005" width="226" height="70" transform="rotate(-10 26.861 110.005)" fill="#8BDCFF"/>
<rect x="38.1481" y="174.017" width="226" height="70" transform="rotate(-10 38.1481 174.017)" fill="#2ABDEC"/>
<rect x="42.4894" y="198.637" width="226" height="70" transform="rotate(-10 42.4894 198.637)" fill="#00789E"/>
<rect x="38.567" y="78.4931" width="140" height="12" rx="6" transform="rotate(-10 38.567 78.4931)" fill="#CCFCFF"/>
<rect x="54.3834" y="64.5346" width="78" height="17" rx="8.5" transform="rotate(-10 54.3834 64.5346)" fill="#CCFCFF"/>
<rect x="118.106" y="57.3603" width="33" height="7" rx="3.5" transform="rotate(-10 118.106 57.3603)" fill="#BCFBF7"/>
<rect x="171.628" y="84.4783" width="67" height="11" rx="5.5" transform="rotate(-10 171.628 84.4783)" fill="#BCFBF7"/>
<rect x="46.1005" y="57.8716" width="106" height="12" rx="6" transform="rotate(-10 46.1005 57.8716)" fill="#CCFCFF"/>
<path d="M176.552 83.61L165.719 85.5202C165.719 85.5202 168.219 85.0794 170.183 86.4738C172.147 87.8681 172.594 90.4005 172.594 90.4005L177.594 89.5189L176.552 83.61Z" fill="#BCFBF7"/>
<rect x="42.7201" y="205.705" width="140" height="12" rx="6" transform="rotate(-10 42.7201 205.705)" fill="#00A8DE"/>
<rect x="58.5365" y="191.746" width="78" height="17" rx="8.5" transform="rotate(-10 58.5365 191.746)" fill="#00A8DE"/>
<rect x="106.502" y="187.35" width="116" height="7" rx="3.5" transform="rotate(-10 106.502 187.35)" fill="#2ABDEC"/>
<rect x="39.4208" y="186.993" width="117" height="12" rx="6" transform="rotate(-10 39.4208 186.993)" fill="#00A8DE"/>
<rect x="42.606" y="193.54" width="44" height="7" rx="3.5" transform="rotate(-10 42.606 193.54)" fill="#2ABDEC"/>
<path d="M217.785 167.728L224.186 166.599C224.186 166.599 222.709 166.86 221.898 168.018C221.087 169.177 221.347 170.654 221.347 170.654L218.393 171.175L217.785 167.728Z" fill="#2ABDEC"/>
<path d="M174.684 182.436L187.487 180.178C187.487 180.178 184.532 180.699 182.91 183.016C181.288 185.333 181.809 188.287 181.809 188.287L175.9 189.329L174.684 182.436Z" fill="#00A8DE"/>
<rect x="214.531" y="241.412" width="134" height="27" rx="11" transform="rotate(170 214.531 241.412)" fill="#004054"/>
<rect x="252.451" y="200.202" width="140" height="12" rx="6" transform="rotate(170 252.451 200.202)" fill="#13516B"/>
<rect x="240.226" y="211.496" width="78" height="17" rx="8.5" transform="rotate(170 240.226 211.496)" fill="#13516B"/>
<rect x="188.669" y="218.556" width="116" height="7" rx="3.5" transform="rotate(170 188.669 218.556)" fill="#004054"/>
<rect x="256.533" y="214.713" width="118" height="8" rx="4" transform="rotate(170 256.533 214.713)" fill="#13516B"/>
<rect x="237.909" y="209.874" width="44" height="7" rx="3.5" transform="rotate(170 237.909 209.874)" fill="#004054"/>
<path d="M80.9777 235.514L74.5764 236.643C74.5764 236.643 76.0536 236.382 76.8648 235.224C77.6759 234.065 77.4155 232.588 77.4155 232.588L80.3699 232.067L80.9777 235.514Z" fill="#2ABDEC"/>
<path d="M120.487 223.47L107.684 225.728C107.684 225.728 110.638 225.207 112.261 222.89C113.883 220.573 113.362 217.619 113.362 217.619L119.271 216.577L120.487 223.47Z" fill="#13516B"/>
<rect x="18.6305" y="143.949" width="116" height="12" rx="6" transform="rotate(-10 18.6305 143.949)" fill="#B2E8FF"/>
<rect x="34.4469" y="129.991" width="78" height="17" rx="8.5" transform="rotate(-10 34.4469 129.991)" fill="#B2E8FF"/>
<rect x="98.1692" y="122.817" width="33" height="7" rx="3.5" transform="rotate(-10 98.1692 122.817)" fill="#8BDCFF"/>
<rect x="26.1641" y="123.328" width="129" height="12" rx="6" transform="rotate(-10 26.1641 123.328)" fill="#B2E8FF"/>
<rect x="28.0171" y="137.078" width="33" height="10" rx="5" transform="rotate(-10 28.0171 137.078)" fill="#8BDCFF"/>
<rect x="201.4" y="103.599" width="83" height="8" rx="4" transform="rotate(-10 201.4 103.599)" fill="#B2E8FF"/>
<rect x="176.78" y="107.94" width="20" height="8" rx="4" transform="rotate(-10 176.78 107.94)" fill="#B2E8FF"/>
<rect x="222.195" y="112.117" width="29" height="8" rx="4" transform="rotate(-10 222.195 112.117)" fill="#B2E8FF"/>
<rect x="107.085" y="161.862" width="67" height="6" rx="3" transform="rotate(170 107.085 161.862)" fill="#2ABDEC"/>
<path d="M102.161 162.73L112.994 160.82C112.994 160.82 110.494 161.261 108.678 160.71C106.863 160.16 106.64 158.894 106.64 158.894L101.64 159.775L102.161 162.73Z" fill="#2ABDEC"/>
<rect width="67" height="6" rx="3" transform="matrix(0.984808 -0.173648 -0.173648 -0.984808 202.611 145.018)" fill="#2ABDEC"/>
<path d="M207.535 144.15L196.702 146.06C196.702 146.06 199.202 145.619 200.72 144.481C202.238 143.343 202.014 142.077 202.014 142.077L207.014 141.195L207.535 144.15Z" fill="#2ABDEC"/>
</g>
<path d="M379.773 84.6C385.573 84.6 390.623 85.45 394.923 87.15C399.223 88.75 403.573 91.3 407.973 94.8L402.573 100.5C398.873 97.6 395.273 95.5 391.773 94.2C388.273 92.9 384.273 92.25 379.773 92.25C373.873 92.25 368.373 93.8 363.273 96.9C358.273 100 354.173 104.95 350.973 111.75C347.873 118.45 346.323 126.95 346.323 137.25C346.323 152.55 349.223 164 355.023 171.6C360.823 179.2 368.923 183 379.323 183C387.323 183 394.523 181.2 400.923 177.6V141.15H380.823L379.773 133.65H409.773V182.25C399.973 187.85 389.823 190.65 379.323 190.65C366.223 190.65 355.873 186.1 348.273 177C340.673 167.9 336.873 154.65 336.873 137.25C336.873 125.95 338.823 116.35 342.723 108.45C346.723 100.45 351.973 94.5 358.473 90.6C365.073 86.6 372.173 84.6 379.773 84.6ZM499.347 171.6C499.347 175.7 499.847 178.65 500.847 180.45C501.947 182.25 503.647 183.6 505.947 184.5L503.997 190.65C500.397 189.95 497.597 188.6 495.597 186.6C493.697 184.6 492.447 181.55 491.847 177.45C486.447 186.25 478.297 190.65 467.397 190.65C459.897 190.65 453.947 188.55 449.547 184.35C445.247 180.05 443.097 174.35 443.097 167.25C443.097 159.15 445.947 152.9 451.647 148.5C457.447 144.1 465.447 141.9 475.647 141.9H490.647V134.25C490.647 127.95 489.247 123.4 486.447 120.6C483.647 117.7 478.997 116.25 472.497 116.25C466.497 116.25 459.397 117.75 451.197 120.75L448.947 114.15C457.747 110.65 465.997 108.9 473.697 108.9C490.797 108.9 499.347 117.2 499.347 133.8V171.6ZM468.897 183.6C478.297 183.6 485.547 179 490.647 169.8V148.2H476.997C468.997 148.2 462.897 149.75 458.697 152.85C454.497 155.95 452.397 160.6 452.397 166.8C452.397 172.2 453.847 176.35 456.747 179.25C459.647 182.15 463.697 183.6 468.897 183.6ZM580.667 108.9C587.767 108.9 593.167 111 596.867 115.2C600.667 119.4 602.567 125.3 602.567 132.9V189H593.867V134.1C593.867 127.8 592.617 123.2 590.117 120.3C587.617 117.4 583.917 115.95 579.017 115.95C574.017 115.95 569.567 117.35 565.667 120.15C561.867 122.85 558.217 126.85 554.717 132.15V189H546.017V110.55H553.517L554.417 123.9C557.617 119.2 561.417 115.55 565.817 112.95C570.217 110.25 575.167 108.9 580.667 108.9ZM672.346 189.3C670.246 195.4 667.946 200.4 665.446 204.3C662.946 208.2 659.696 211.4 655.696 213.9C651.696 216.5 646.546 218.4 640.246 219.6L639.346 212.85C644.546 211.55 648.596 209.95 651.496 208.05C654.496 206.15 656.846 203.75 658.546 200.85C660.346 198.05 662.146 194.1 663.946 189H660.946L633.646 110.55H643.096L666.796 182.55L690.046 110.55H699.196L672.346 189.3ZM808.963 108.9C815.263 108.9 820.213 111.05 823.813 115.35C827.513 119.65 829.363 125.5 829.363 132.9V189H820.663V134.1C820.663 127.9 819.463 123.35 817.063 120.45C814.763 117.45 811.513 115.95 807.313 115.95C802.913 115.95 798.963 117.35 795.463 120.15C791.963 122.95 788.563 126.95 785.263 132.15V189H776.563V134.1C776.563 127.9 775.363 123.35 772.963 120.45C770.663 117.45 767.413 115.95 763.213 115.95C758.713 115.95 754.713 117.35 751.213 120.15C747.713 122.95 744.363 126.95 741.163 132.15V189H732.463V110.55H739.963L740.713 123.9C743.713 119.2 747.263 115.55 751.363 112.95C755.463 110.25 759.963 108.9 764.863 108.9C769.863 108.9 774.063 110.3 777.463 113.1C780.863 115.8 783.163 119.6 784.363 124.5C787.463 119.6 791.063 115.8 795.163 113.1C799.363 110.3 803.963 108.9 808.963 108.9ZM930.993 146.85C930.993 149.05 930.893 151.15 930.693 153.15H878.343C878.843 163.35 881.243 170.95 885.543 175.95C889.943 180.85 895.693 183.3 902.793 183.3C906.893 183.3 910.493 182.7 913.593 181.5C916.793 180.2 920.243 178.2 923.943 175.5L927.993 181.05C924.093 184.25 920.093 186.65 915.993 188.25C911.893 189.85 907.343 190.65 902.343 190.65C891.943 190.65 883.793 187.1 877.893 180C871.993 172.9 869.043 163.05 869.043 150.45C869.043 142.15 870.293 134.9 872.793 128.7C875.393 122.4 879.043 117.55 883.743 114.15C888.543 110.65 894.093 108.9 900.393 108.9C910.393 108.9 917.993 112.3 923.193 119.1C928.393 125.8 930.993 135.05 930.993 146.85ZM922.443 144.15C922.443 135.35 920.593 128.5 916.893 123.6C913.293 118.6 907.893 116.1 900.693 116.1C894.193 116.1 888.943 118.6 884.943 123.6C880.943 128.6 878.743 136.2 878.343 146.4H922.443V144.15ZM1026.71 78.6V189H1019.21L1018.16 177C1012.76 186.1 1004.91 190.65 994.613 190.65C985.513 190.65 978.313 187.05 973.013 179.85C967.813 172.55 965.213 162.65 965.213 150.15C965.213 142.05 966.413 134.9 968.813 128.7C971.313 122.5 974.863 117.65 979.463 114.15C984.163 110.65 989.663 108.9 995.963 108.9C1004.86 108.9 1012.21 112.45 1018.01 119.55V77.55L1026.71 78.6ZM995.963 183.45C1000.96 183.45 1005.16 182.25 1008.56 179.85C1012.06 177.45 1015.21 173.8 1018.01 168.9V127.95C1012.41 120.05 1005.56 116.1 997.463 116.1C990.363 116.1 984.713 119.05 980.513 124.95C976.413 130.85 974.413 139.2 974.513 150C974.513 160.8 976.413 169.1 980.213 174.9C984.013 180.6 989.263 183.45 995.963 183.45ZM1129.16 146.85C1129.16 149.05 1129.06 151.15 1128.86 153.15H1076.51C1077.01 163.35 1079.41 170.95 1083.71 175.95C1088.11 180.85 1093.86 183.3 1100.96 183.3C1105.06 183.3 1108.66 182.7 1111.76 181.5C1114.96 180.2 1118.41 178.2 1122.11 175.5L1126.16 181.05C1122.26 184.25 1118.26 186.65 1114.16 188.25C1110.06 189.85 1105.51 190.65 1100.51 190.65C1090.11 190.65 1081.96 187.1 1076.06 180C1070.16 172.9 1067.21 163.05 1067.21 150.45C1067.21 142.15 1068.46 134.9 1070.96 128.7C1073.56 122.4 1077.21 117.55 1081.91 114.15C1086.71 110.65 1092.26 108.9 1098.56 108.9C1108.56 108.9 1116.16 112.3 1121.36 119.1C1126.56 125.8 1129.16 135.05 1129.16 146.85ZM1120.61 144.15C1120.61 135.35 1118.76 128.5 1115.06 123.6C1111.46 118.6 1106.06 116.1 1098.86 116.1C1092.36 116.1 1087.11 118.6 1083.11 123.6C1079.11 128.6 1076.91 136.2 1076.51 146.4H1120.61V144.15Z" fill="#082128"/>
</svg>
