<svg width="806" height="380" viewBox="0 0 806 380" fill="none" xmlns="http://www.w3.org/2000/svg">
<rect x="61.162" y="336.387" width="385" height="20" rx="10" transform="rotate(-22.5 61.162 336.387)" fill="#FFDCB2"/>
<rect x="144.864" y="332.024" width="369" height="18" rx="9" transform="rotate(-22.5 144.864 332.024)" fill="#FFDCB2"/>
<path fill-rule="evenodd" clip-rule="evenodd" d="M101.484 292.625C99.1594 287.013 101.825 280.578 107.437 278.253L325.473 187.94C331.086 185.615 337.52 188.28 339.845 193.893L340.532 195.55L313.668 206.677C308.056 209.002 305.39 215.437 307.715 221.05L308.179 222.17C310.504 227.783 316.939 230.448 322.552 228.123L349.415 216.996L357.066 235.468L252.668 278.711C250.627 279.556 249.657 281.896 250.503 283.937C251.348 285.978 253.688 286.947 255.729 286.102L360.127 242.859L362.806 249.326C365.131 254.939 362.466 261.373 356.853 263.698L138.817 354.011C133.205 356.336 126.77 353.671 124.445 348.058L101.484 292.625Z" fill="#FFDCB2"/>
<rect x="73.374" y="271.797" width="428" height="32" rx="16" transform="rotate(-22.5 73.374 271.797)" fill="#FFDCB2"/>
<rect x="0.387573" y="302.029" width="168" height="101" rx="50.5" transform="rotate(-22.5 0.387573 302.029)" fill="#FFDCB2"/>
<rect x="534.188" y="140.453" width="275" height="20" rx="10" transform="rotate(-22.5 534.188 140.453)" fill="#FFDCB2"/>
<rect x="457.506" y="172.216" width="66" height="20" rx="10" transform="rotate(-22.5 457.506 172.216)" fill="#FFDCB2"/>
<rect x="498.709" y="185.456" width="96" height="18" rx="9" transform="rotate(-22.5 498.709 185.456)" fill="#FFDCB2"/>
<rect x="44.4824" y="293.506" width="173" height="14" rx="7" transform="rotate(-22.5 44.4824 293.506)" fill="#FF961C"/>
<rect x="40.2842" y="314.728" width="114" height="14" rx="7" transform="rotate(-22.5 40.2842 314.728)" fill="#FF961C"/>
<rect x="53.257" y="327.755" width="135" height="7" rx="3.5" transform="rotate(-22.5 53.257 327.755)" fill="#FF961C"/>
<rect x="42.5259" y="346.271" width="114" height="5" rx="2.5" transform="rotate(-22.5 42.5259 346.271)" fill="#FF961C"/>
<rect x="76.458" y="341.958" width="67" height="9" rx="4.5" transform="rotate(-22.5 76.458 341.958)" fill="#FF961C"/>
<rect x="81.1158" y="358.429" width="67" height="9" rx="4.5" transform="rotate(-22.5 81.1158 358.429)" fill="#FF961C"/>
<rect x="52.0048" y="301.214" width="67" height="70" transform="rotate(-22.5 52.0048 301.214)" fill="#FF961C"/>
<rect x="13.9944" y="306.135" width="83" height="83" rx="41.5" transform="rotate(-22.5 13.9944 306.135)" fill="#FF961C"/>
<rect x="88.6429" y="290.368" width="67" height="4" rx="2" transform="rotate(-22.5 88.6429 290.368)" fill="#FFDCB2"/>
<rect x="109.389" y="301.257" width="52" height="3" rx="1.5" transform="rotate(-22.5 109.389 301.257)" fill="#FFDCB2"/>
<rect x="99.358" y="316.236" width="52" height="6" rx="3" transform="rotate(-22.5 99.358 316.236)" fill="#FFDCB2"/>
<rect x="108.542" y="338.41" width="33" height="8" rx="4" transform="rotate(-22.5 108.542 338.41)" fill="#FFDCB2"/>
<rect x="127.589" y="316.449" width="10" height="4" rx="2" transform="rotate(-22.5 127.589 316.449)" fill="#FFDCB2"/>
</svg>
